# xmcd
#
# Track frame offsets: 
#        150
#        12480
#        32355
#        46958
#        65836
#        77529
#        91862
#        117340
#        131695
#        144663
#        157293
#        175938
#
# Disc length: 2528 seconds
#
# Revision: 0
# Processed by: cddbd v1.5.2PL0 Copyright (c) Steve Scherf et al.
# Submitted via: ExactAudioCopy v0.99pb5
#
DISCID=a109de0c
DTITLE=Animals - The Animals
DYEAR=1964
DGENRE=Blues
TTITLE0=I'm Crying
TTITLE1=House Of The Rising Sun
TTITLE2=Boom Boom
TTITLE3=I'm Mad Again
TTITLE4=Bring It On Home To Me
TTITLE5=We've Gotta Get Out Of This Place
TTITLE6=Story Of Bo Diddley
TTITLE7=How You've Changed
TTITLE8=Bright Lights, Big City
TTITLE9=Roadrunner
TTITLE10=Worried Life Blues
TTITLE11=It's My Life
EXTD=
EXTT0=
EXTT1=
EXTT2=
EXTT3=
EXTT4=
EXTT5=
EXTT6=
EXTT7=
EXTT8=
EXTT9=
EXTT10=
EXTT11=
PLAYORDER=
